<svg width="23" height="23" viewBox="0 0 23 23" fill="none" xmlns="http://www.w3.org/2000/svg">
<g id="ArrowRight">
<path id="Vector" d="M15.9532 7.42462V13.7886C15.9532 13.9878 15.8741 14.1789 15.7332 14.3198C15.5923 14.4607 15.4012 14.5399 15.2019 14.5399C15.0027 14.5399 14.8116 14.4607 14.6707 14.3198C14.5298 14.1789 14.4506 13.9878 14.4506 13.7886L14.4515 9.23658L7.95495 15.7331C7.8143 15.8738 7.62353 15.9528 7.42462 15.9528C7.22571 15.9528 7.03494 15.8738 6.89429 15.7331C6.75364 15.5925 6.67462 15.4017 6.67462 15.2028C6.67462 15.0039 6.75364 14.8131 6.89429 14.6725L13.3908 8.17592L8.83839 8.1746C8.63913 8.1746 8.44804 8.09544 8.30714 7.95455C8.16625 7.81365 8.08709 7.62255 8.08709 7.4233C8.08709 7.22404 8.16625 7.03294 8.30714 6.89205C8.44804 6.75115 8.63913 6.672 8.83839 6.672H15.2024C15.3011 6.67188 15.399 6.69128 15.4902 6.72909C15.5815 6.76689 15.6644 6.82236 15.7342 6.89229C15.8039 6.96222 15.8592 7.04525 15.8968 7.1366C15.9344 7.22796 15.9536 7.32584 15.9532 7.42462Z" fill="white"/>
</g>
</svg>
